<svg xmlns="http://www.w3.org/2000/svg" width="27" height="27" viewBox="0 0 27 27">
  <g id="Icon_feather-settings" data-name="Icon feather-settings" transform="translate(-0.5 -0.5)">
    <path id="Pfad_941" data-name="Pfad 941" d="M22.5,18A4.5,4.5,0,1,1,18,13.5,4.5,4.5,0,0,1,22.5,18Z" transform="translate(-4 -4)" fill="none" stroke="#fff" stroke-linecap="round" stroke-linejoin="round" stroke-width="2"/>
    <path id="Pfad_942" data-name="Pfad 942" d="M22.409,17.409a1.875,1.875,0,0,0,.375,2.068l.068.068a2.274,2.274,0,1,1-3.216,3.216l-.068-.068a1.89,1.89,0,0,0-3.2,1.341v.193a2.273,2.273,0,1,1-4.545,0v-.1a1.875,1.875,0,0,0-1.227-1.716,1.875,1.875,0,0,0-2.068.375l-.068.068a2.274,2.274,0,1,1-3.216-3.216l.068-.068a1.89,1.89,0,0,0-1.341-3.2H3.773a2.273,2.273,0,1,1,0-4.545h.1a1.875,1.875,0,0,0,1.716-1.227,1.875,1.875,0,0,0-.375-2.068l-.068-.068A2.274,2.274,0,1,1,8.364,5.239l.068.068a1.875,1.875,0,0,0,2.068.375h.091a1.875,1.875,0,0,0,1.136-1.716V3.773a2.273,2.273,0,0,1,4.545,0v.1a1.89,1.89,0,0,0,3.2,1.341l.068-.068a2.274,2.274,0,1,1,3.216,3.216l-.068.068a1.875,1.875,0,0,0-.375,2.068v.091a1.875,1.875,0,0,0,1.716,1.136h.193a2.273,2.273,0,0,1,0,4.545h-.1a1.875,1.875,0,0,0-1.716,1.136Z" transform="translate(0 0)" fill="none" stroke="#fff" stroke-linecap="round" stroke-linejoin="round" stroke-width="2"/>
  </g>
</svg>
