<svg xmlns="http://www.w3.org/2000/svg" width="45" height="45" viewBox="0 0 45 45">
  <path id="Differenzmenge_211" data-name="Differenzmenge 211" d="M-6852.5,5193a22.354,22.354,0,0,1-15.91-6.591A22.354,22.354,0,0,1-6875,5170.5a22.349,22.349,0,0,1,6.591-15.908A22.354,22.354,0,0,1-6852.5,5148a22.35,22.35,0,0,1,15.909,6.591A22.349,22.349,0,0,1-6830,5170.5a22.355,22.355,0,0,1-6.59,15.91A22.35,22.35,0,0,1-6852.5,5193Zm-8.24-35a2.483,2.483,0,0,0-2.469,2.125l-1.726,11.25a2.5,2.5,0,0,0,.585,2.016,2.5,2.5,0,0,0,1.885.859h7.1v5a3.753,3.753,0,0,0,3.75,3.749l5-11.25h3.391a2.9,2.9,0,0,0,2.86-2.5v-8.75a2.9,2.9,0,0,0-2.86-2.5h-17.52Z" transform="translate(6875 -5148)" fill="#fff" opacity="0.5"/>
</svg>
