<svg xmlns="http://www.w3.org/2000/svg" width="30.697" height="25.273" viewBox="0 0 30.697 25.273">
  <path id="Differenzmenge_200" data-name="Differenzmenge 200" d="M14.156,25.274c-4.188,0-8.3-.333-8.979-.728-.561-.326-1.845-2.533-2.985-5.135A22.694,22.694,0,0,1,0,11.648c-.012-1.109.264-1.842.82-2.18.777-.473,3.164-.81,6.9-.976A13.054,13.054,0,0,1,9.559,3.178,6.8,6.8,0,0,1,15.511,0h.057a6.968,6.968,0,0,1,6.09,3.259,13.785,13.785,0,0,1,1.966,5.392c3.782.216,6.172.514,6.557.816.409.321.591,1.566.488,3.331a23.731,23.731,0,0,1-1.243,6.162c-.568,1.6-1.565,3.711-3.092,4.642C23.861,25.111,16.994,25.274,14.156,25.274ZM12.145,12.94v2.112h3.048l-3.048,3.972v1.921h6.336V18.833H15.337l3.06-3.984V12.94H12.145Zm1.392-4.563c2.49,0,5.115.053,7.592.154A11.891,11.891,0,0,0,19.842,4,4.746,4.746,0,0,0,15.511,1.37H15.5a4.032,4.032,0,0,0-3.024,1.175c-1.424,1.472-1.649,4-1.587,5.854C11.758,8.384,12.649,8.377,13.537,8.377Z" transform="translate(0 -0.001)" fill="#fff" opacity="0.7"/>
</svg>
