<svg xmlns="http://www.w3.org/2000/svg" width="30.045" height="35" viewBox="0 0 30.045 35">
  <g id="Differenzmenge_220" data-name="Differenzmenge 220" transform="translate(4081 -57.718)" fill="none">
    <path d="M-4073.1,92.718h0l-7.9-4.549v-.048l7.939-4.6V92.7l-.038.022Zm4.14-2.421h0V81.152l7.376-4.27,10.629-6.152v9.037l-18,10.529ZM-4081,83.374h0v-21.1l7.9-4.55.039.023V78.779L-4081,83.373Zm12.04-6.97h0V60.139l13.978,8.175-13.976,8.09Z" stroke="none"/>
    <path d="M -4074.56103515625 90.14570617675781 L -4074.56103515625 86.12728118896484 L -4078.041259765625 88.14183807373047 L -4074.56103515625 90.14570617675781 M -4067.4599609375 87.68206787109375 L -4052.455078125 78.90719604492188 L -4052.455078125 73.33184814453125 L -4060.83251953125 78.18097686767578 L -4067.4599609375 82.01720428466797 L -4067.4599609375 87.68206787109375 M -4079.5 80.77256774902344 L -4074.56103515625 77.913818359375 L -4074.56103515625 60.29044723510742 L -4079.5 63.1347770690918 L -4079.5 80.77256774902344 M -4067.4599609375 73.80296325683594 L -4057.965087890625 68.30715942382813 L -4067.4599609375 62.75415802001953 L -4067.4599609375 73.80296325683594 M -4073.099853515625 92.71798706054688 L -4073.10009765625 92.71775817871094 L -4081 88.16917419433594 L -4081 88.12126922607422 L -4073.06103515625 83.52584075927734 L -4073.06103515625 92.69535827636719 L -4073.099365234375 92.71775817871094 L -4073.099853515625 92.71798706054688 Z M -4068.9599609375 90.29694366455078 L -4068.9599609375 90.29551696777344 L -4068.9599609375 81.15229797363281 L -4061.583984375 76.88277435302734 L -4050.955078125 70.73043823242188 L -4050.955078125 79.76765441894531 L -4068.958740234375 90.29621887207031 L -4068.9599609375 90.29694366455078 Z M -4081 83.37394714355469 L -4081 83.37252807617188 L -4081 62.26765823364258 L -4073.099853515625 57.71798706054688 L -4073.06103515625 57.74063873291016 L -4073.06103515625 78.77874755859375 L -4080.998779296875 83.37323760986328 L -4081 83.37394714355469 Z M -4068.9599609375 76.40435028076172 L -4068.9599609375 76.40290832519531 L -4068.9599609375 74.98679351806641 L -4068.9599609375 60.13918685913086 L -4054.982421875 68.31386566162109 L -4068.958740234375 76.40364074707031 L -4068.9599609375 76.40435028076172 Z" stroke="none" fill="#ff3c00"/>
  </g>
</svg>
