<svg xmlns="http://www.w3.org/2000/svg" width="32.421" height="35" viewBox="0 0 32.421 35">
  <g id="Differenzmenge_206" data-name="Differenzmenge 206" transform="translate(0 -7.559)" fill="none" opacity="0.7">
    <path d="M17.784,42.559a17.786,17.786,0,0,1-4.475-35A17.793,17.793,0,0,0,32.422,34.877,17.8,17.8,0,0,1,17.784,42.559Z" stroke="none"/>
    <path d="M 17.78350257873535 40.55906677246094 C 21.22408866882324 40.55906677246094 24.52108764648438 39.43582534790039 27.21253395080566 37.43186569213867 C 16.64200401306152 37.04448699951172 8.162143707275391 28.32434272766113 8.162143707275391 17.66086959838867 C 8.162143707275391 15.57216930389404 8.48565673828125 13.52471828460693 9.114690780639648 11.5762825012207 C 4.767318248748779 14.43343162536621 2.000003576278687 19.34477615356445 2.000003576278687 24.77463912963867 C 2.000003576278687 28.99068832397461 3.641863584518433 32.95450973510742 6.623123645782471 35.93589019775391 C 9.604323387145996 38.91719055175781 13.56782341003418 40.55906677246094 17.78350257873535 40.55906677246094 M 17.78350257873535 42.55906677246094 C 13.03359317779541 42.55906677246094 8.567843437194824 40.70914840698242 5.208883285522461 37.35007858276367 C 1.849883556365967 33.99094009399414 3.52233882949804e-06 29.52489852905273 3.52233882949804e-06 24.77463912963867 C 3.52233882949804e-06 16.66985893249512 5.472583293914795 9.590559005737305 13.30831336975098 7.55906867980957 C 11.25044345855713 10.53519821166992 10.16214370727539 14.02780914306641 10.16214370727539 17.66086959838867 C 10.16214370727539 27.46723937988281 18.14019393920898 35.44529724121094 27.94656372070313 35.44529724121094 C 29.4625129699707 35.44529724121094 30.96815299987793 35.25420761108398 32.42162322998047 34.87733840942383 C 29.09544372558594 39.68796920776367 23.62283325195313 42.55906677246094 17.78350257873535 42.55906677246094 Z" stroke="none" fill="#fff"/>
  </g>
</svg>
