<svg xmlns="http://www.w3.org/2000/svg" xmlns:xlink="http://www.w3.org/1999/xlink" width="61.004" height="51.06" viewBox="0 0 61.004 51.06">
  <defs>
    <linearGradient id="linear-gradient" x1="0.5" x2="0.5" y2="1" gradientUnits="objectBoundingBox">
      <stop offset="0" stop-color="red"/>
      <stop offset="1" stop-color="#ff5e00"/>
    </linearGradient>
    <filter id="Differenzmenge_198" x="0" y="0" width="61.004" height="51.06" filterUnits="userSpaceOnUse">
      <feOffset dx="5" dy="15" input="SourceAlpha"/>
      <feGaussianBlur stdDeviation="3" result="blur"/>
      <feFlood flood-opacity="0.161"/>
      <feComposite operator="in" in2="blur"/>
      <feComposite in="SourceGraphic"/>
    </filter>
  </defs>
  <g transform="matrix(1, 0, 0, 1, 0, 0)" filter="url(#Differenzmenge_198)">
    <path id="Differenzmenge_198-2" data-name="Differenzmenge 198" d="M8,20.411a7.9,7.9,0,0,1-2.984-.585A8.025,8.025,0,0,1,.612,9.407L2.2,5.46a8.042,8.042,0,0,1,.946-1.715A7.779,7.779,0,0,1,9.824,0H30.419A7.828,7.828,0,0,1,37.76,5.111c.053.114.106.239.159.37l1.608,4a7.9,7.9,0,0,1-4.337,10.26,7.776,7.776,0,0,1-2.937.576,7.855,7.855,0,0,1-7.166-4.666h-9.8A7.973,7.973,0,0,1,8,20.411ZM9.914,6.706a1.118,1.118,0,0,0,0,2.236h2.658v2.593a1.133,1.133,0,1,0,2.265,0V8.942h2.658a1.118,1.118,0,0,0,0-2.236H14.837V4.112a1.133,1.133,0,0,0-2.265,0V6.706ZM27.294,2.98A4.844,4.844,0,1,0,32.2,7.824,4.882,4.882,0,0,0,27.294,2.98Zm0,7.731a2.887,2.887,0,1,1,2.927-2.887A2.91,2.91,0,0,1,27.294,10.711Z" transform="translate(3.97 6.96) rotate(-10)" fill="url(#linear-gradient)"/>
  </g>
</svg>
