<svg xmlns="http://www.w3.org/2000/svg" width="37" height="37" viewBox="0 0 37 37">
  <g id="Icon_feather-settings" data-name="Icon feather-settings" transform="translate(-0.5 -0.5)" opacity="0.7">
    <path id="Pfad_855" data-name="Pfad 855" d="M22.5,18A4.5,4.5,0,1,1,18,13.5,4.5,4.5,0,0,1,22.5,18Z" transform="translate(1 1)" fill="none" stroke="#fff" stroke-linecap="round" stroke-linejoin="round" stroke-width="2"/>
    <path id="Pfad_856" data-name="Pfad 856" d="M30.773,23.773a2.625,2.625,0,0,0,.525,2.9l.1.1a3.184,3.184,0,1,1-4.5,4.5l-.1-.1a2.646,2.646,0,0,0-4.486,1.877v.27a3.182,3.182,0,1,1-6.364,0v-.143a2.625,2.625,0,0,0-1.718-2.4,2.625,2.625,0,0,0-2.9.525l-.1.1a3.184,3.184,0,1,1-4.5-4.5l.1-.1a2.646,2.646,0,0,0-1.877-4.486h-.27a3.182,3.182,0,1,1,0-6.364h.143a2.625,2.625,0,0,0,2.4-1.718,2.625,2.625,0,0,0-.525-2.9l-.1-.1a3.184,3.184,0,1,1,4.5-4.5l.1.1a2.625,2.625,0,0,0,2.9.525h.127a2.625,2.625,0,0,0,1.591-2.4v-.27a3.182,3.182,0,1,1,6.364,0v.143A2.646,2.646,0,0,0,26.668,6.7l.1-.1a3.184,3.184,0,1,1,4.5,4.5l-.1.1a2.625,2.625,0,0,0-.525,2.9v.127a2.625,2.625,0,0,0,2.4,1.591h.27a3.182,3.182,0,1,1,0,6.364h-.143a2.625,2.625,0,0,0-2.4,1.591Z" transform="translate(0 0)" fill="none" stroke="#fff" stroke-linecap="round" stroke-linejoin="round" stroke-width="2"/>
  </g>
</svg>
