<svg xmlns="http://www.w3.org/2000/svg" width="32" height="32" viewBox="0 0 32 32">
    <g fill="none" fill-rule="evenodd">
        <path stroke="#66727F" stroke-width="2" d="M10.536 14.127l-.018 1.348c-.01.854-.017 1.683-.018 2.526v.39l-.264.286-2.059 2.237c-.101.1-.177.299-.177.524 0 .356.162.562.226.562h15.548c.011 0 .055-.028.114-.124.18-.294.133-.765-.097-.995L21.5 18.39V18v-3.873C21.5 11.314 19.043 9 16.005 9c-3.032 0-5.47 2.308-5.47 5.127z"/>
        <path fill="#66727F" d="M17.972 9.932c0-.123.028-1.58.028-1.709C18 6.995 17.105 6 16 6s-2 .995-2 2.223c0 .15.038 1.912.038 1.769 0-.183 3.934-.06 3.934-.06zM16 26.43c1.38 0 2.5-1.088 2.5-2.43h-5c0 1.342 1.12 2.43 2.5 2.43z"/>
    </g>
</svg>
