<svg xmlns="http://www.w3.org/2000/svg" width="40" height="43" viewBox="0 0 40 43">
    <g fill="none" fill-rule="nonzero">
        <path fill="#E5EEFD" d="M18.154 3.16c.1.814-.233 1.618-.875 2.11a2.213 2.213 0 0 1-2.234.274 2.303 2.303 0 0 1-1.359-1.835c-.154-1.258.72-2.4 1.955-2.552 1.233-.151 2.359.746 2.513 2.004z"/>
        <path fill="#FFF" fill-opacity="0" stroke="#717791" stroke-linecap="round" stroke-linejoin="round" stroke-width="1.246" d="M18.154 3.16c.1.814-.233 1.618-.875 2.11a2.213 2.213 0 0 1-2.234.274 2.303 2.303 0 0 1-1.359-1.835c-.154-1.258.72-2.4 1.955-2.552 1.233-.151 2.359.746 2.513 2.004z"/>
        <path fill="#E5EEFD" d="M31.651 17.668l1.784 14.526a2.16 2.16 0 0 1-.426 1.576 2.076 2.076 0 0 1-1.397.801L8.227 37.442c-1.15.142-2.199-.693-2.344-1.866L4.1 21.051c-.674-5.485 1.827-10.613 6.038-13.475 1.8-1.226 3.86-2 6.012-2.262a13.7 13.7 0 0 1 10.247 2.917 14.244 14.244 0 0 1 5.254 9.437z"/>
        <path fill="#3F72BA" d="M31.651 17.668l1.784 14.526a2.16 2.16 0 0 1-.426 1.576 2.076 2.076 0 0 1-1.397.801l-2.816.346a2.077 2.077 0 0 0 1.397-.802 2.16 2.16 0 0 0 .427-1.576l-1.784-14.525a14.246 14.246 0 0 0-5.254-9.437A13.721 13.721 0 0 0 14.76 5.56 13.7 13.7 0 0 1 26.397 8.23a14.244 14.244 0 0 1 5.254 9.437z" opacity=".2"/>
        <path fill="#717791" d="M3.824 17.28c-.245-1.08.018-2.136.396-3.11.157-.502.398-.97.604-1.452.246-.461.477-.935.764-1.372 1.11-1.773 2.58-3.315 4.322-4.455 3.456-2.333 7.919-2.988 11.921-1.837 4.006 1.16 7.459 4.133 9.248 7.974.236.473.397.98.598 1.47.17.5.293 1.016.44 1.525.103.518.188 1.042.28 1.563l.186 1.496.737 5.987.733 5.988.092.748c.014.138.031.222.044.403a2.916 2.916 0 0 1-.84 2.319 2.866 2.866 0 0 1-.823.573 3.1 3.1 0 0 1-.475.165 3.96 3.96 0 0 1-.454.08l-1.469.18-11.745 1.436-5.873.719-2.936.359-.734.09c-.264.028-.438.066-.81.084a2.843 2.843 0 0 1-1.854-.66 2.9 2.9 0 0 1-.998-1.723l-.213-1.536-.425-2.987a54.624 54.624 0 0 1-.344-2.996c-.084-1.003-.113-2.012.08-3.05a.356.356 0 0 1 .306-.29.356.356 0 0 1 .366.208c.44.96.654 1.946.815 2.94.161.992.287 1.99.391 2.99l.312 3 .082.75.041.375c.014.12.027.27.043.33a1.371 1.371 0 0 0 1.364 1.14c.12-.002.434-.047.66-.073l.734-.09 2.936-.362 5.872-.724 11.744-1.447 1.469-.18c.142-.018.188-.028.274-.046.076-.02.15-.047.224-.078a1.37 1.37 0 0 0 .786-1.126c.003-.08.007-.16-.002-.242-.002-.07-.027-.235-.04-.348l-.092-.748-.737-5.986-.734-5.988-.18-1.498-.245-1.407c-.135-.455-.242-.92-.392-1.37-.18-.439-.32-.897-.532-1.321-1.592-3.454-4.694-6.15-8.298-7.211-3.6-1.05-7.644-.478-10.773 1.62-1.58 1.023-2.918 2.415-3.93 4.02-.263.394-.471.824-.698 1.24-.187.437-.41.86-.552 1.315-.353.896-.484 1.818-1.065 2.715l-.014.022a.32.32 0 0 1-.328.141.33.33 0 0 1-.259-.252z"/>
        <path fill="#717791" d="M3.43 21.37c-.064-.138-.055-.29-.022-.45.027-.156.072-.314.15-.472a.556.556 0 0 1 .437-.31.557.557 0 0 1 .494.206l.024.031c.108.133.182.266.238.4.06.131.103.27.076.423a.738.738 0 0 1-.625.611.737.737 0 0 1-.765-.424l-.007-.015z"/>
        <path fill="#E5EEFD" d="M24.155 37.777c.274 2.229-1.276 4.253-3.463 4.522-2.186.268-4.18-1.321-4.454-3.55-.273-2.23 1.277-4.254 3.463-4.522 2.186-.268 4.18 1.32 4.454 3.55z"/>
        <path fill="#FFF" fill-opacity="0" stroke="#717791" stroke-linecap="round" stroke-linejoin="round" stroke-width="1.427" d="M24.155 37.777c.274 2.229-1.276 4.253-3.463 4.522-2.186.268-4.18-1.321-4.454-3.55-.273-2.23 1.277-4.254 3.463-4.522 2.186-.268 4.18 1.32 4.454 3.55z"/>
        <path fill="#E5EEFD" d="M9.715 34.062l25.433-3.123c1.842-.226 3.522 1.113 3.753 2.991.23 1.878-1.076 3.584-2.918 3.81l-31.23 3.835c-1.828.2-3.48-1.136-3.709-2.996-.228-1.861 1.052-3.556 2.874-3.805l1.529-.188 4.268-.524z"/>
        <path fill="#3F72BA" d="M38.901 33.93a3.445 3.445 0 0 1-.683 2.524 3.314 3.314 0 0 1-2.234 1.286l-2.815.346a3.314 3.314 0 0 0 2.235-1.286 3.449 3.449 0 0 0 .682-2.524c-.23-1.878-1.91-3.216-3.752-2.99l2.815-.346c1.841-.226 3.521 1.112 3.752 2.99z" opacity=".2"/>
        <path fill="#717791" d="M10.347 33.574c1.622-.524 3.29-.655 4.948-.886l4.978-.64 9.964-1.21 5.015-.596a3.995 3.995 0 0 1 2.819.883c.8.645 1.33 1.574 1.485 2.6.325 2.128-1.009 4.146-3.063 4.634l-.371.067-.32.042-.622.077-1.246.155-2.49.308-19.926 2.444-4.982.602-1.245.151c-.38.048-.911.12-1.41.051a4.039 4.039 0 0 1-2.6-1.416 4.162 4.162 0 0 1-.967-2.834c.06-1.57.993-2.964 2.405-3.59.23-.099.469-.178.712-.237l.369-.064.317-.04c.832-.083 1.65-.289 2.523-.046a.44.44 0 0 1 .316.372.44.44 0 0 1-.217.437c-.788.447-1.631.445-2.458.566l-.306.04-.249.043a3.316 3.316 0 0 0-.477.162 2.69 2.69 0 0 0-.824.577 2.758 2.758 0 0 0-.778 1.835 2.77 2.77 0 0 0 .65 1.89 2.69 2.69 0 0 0 1.735.937c.335.042.64.003 1.09-.055l1.245-.155 4.98-.622 19.925-2.449 2.491-.302 1.246-.152.622-.076.303-.039.246-.044a2.657 2.657 0 0 0 1.604-1.123 2.76 2.76 0 0 0 .426-1.939c-.212-1.412-1.456-2.423-2.853-2.318l-4.949.612-9.961 1.237-4.985.582c-1.664.176-3.316.454-5.015.338a.412.412 0 0 1-.382-.364.412.412 0 0 1 .282-.445z"/>
    </g>
</svg>
