<svg xmlns="http://www.w3.org/2000/svg" width="26" height="26" viewBox="0 0 26 26">
    <g fill="none" fill-rule="evenodd">
        <path fill="#4222F1" d="M1.133 6.062l5.032-4.966A3.805 3.805 0 0 1 8.837 0h13.358A3.805 3.805 0 0 1 26 3.805v13.44c0 1.009-.4 1.977-1.114 2.69l-4.95 4.95A3.805 3.805 0 0 1 17.244 26H3.805A3.805 3.805 0 0 1 0 22.195V8.77c0-1.018.408-1.993 1.133-2.708z"/>
        <path fill="#FFF" stroke="#4222F1" stroke-width=".5" d="M8.688.25a3.365 3.365 0 0 0-3.365 3.365v13.697a3.365 3.365 0 0 0 3.365 3.365h13.697a3.365 3.365 0 0 0 3.365-3.365V3.615A3.365 3.365 0 0 0 22.385.25H8.688zm1.208 4.573h11.28v11.28H9.897V4.824z"/>
    </g>
</svg>
