<svg xmlns="http://www.w3.org/2000/svg" width="45.257" height="36.54" viewBox="0 0 45.257 36.54">
  <path id="Icon_awesome-code" data-name="Icon awesome-code" d="M19.067,34.969l-4.17-1.21a.822.822,0,0,1-.561-1.019L23.668.595A.822.822,0,0,1,24.686.034l4.17,1.21a.822.822,0,0,1,.561,1.019L20.085,34.408A.819.819,0,0,1,19.067,34.969ZM11.273,27.3l2.974-3.172a.82.82,0,0,0-.055-1.176L8,17.5l6.194-5.449a.815.815,0,0,0,.055-1.176L11.273,7.7a.821.821,0,0,0-1.162-.034L.26,16.9a.815.815,0,0,0,0,1.2l9.851,9.236a.815.815,0,0,0,1.162-.034Zm22.369.041L43.493,18.1a.815.815,0,0,0,0-1.2L33.642,7.664A.828.828,0,0,0,32.48,7.7L29.506,10.87a.82.82,0,0,0,.055,1.176L35.755,17.5,29.561,22.95a.815.815,0,0,0-.055,1.176L32.48,27.3a.821.821,0,0,0,1.162.041Z" transform="translate(0.752 0.783)" fill="none" stroke="#ff3c00" stroke-width="1.5"/>
</svg>
