<svg xmlns="http://www.w3.org/2000/svg" width="29" height="30.514" viewBox="0 0 29 30.514">
  <g id="Gruppe_2060" data-name="Gruppe 2060" transform="translate(-1119 -12.591)" opacity="0.7">
    <g id="Ellipse_623" data-name="Ellipse 623" transform="translate(1126.238 12.591)" fill="none" stroke="#fff" stroke-width="2">
      <circle cx="7.5" cy="7.5" r="7.5" stroke="none"/>
      <circle cx="7.5" cy="7.5" r="6.5" fill="none"/>
    </g>
    <g id="Differenzmenge_175" data-name="Differenzmenge 175" transform="translate(1119 27.341)" fill="none">
      <path d="M16.34,15.765H14.083c-3.8,0-7.385,0-9.972-.956C1.306,13.77,0,11.705,0,8.308A8.751,8.751,0,0,1,1.781,2.677,9.866,9.866,0,0,1,6.5-.372,10.373,10.373,0,0,0,14.9,4a10.378,10.378,0,0,0,8.277-4.2,9.012,9.012,0,0,1,4.237,3.021A9.1,9.1,0,0,1,29,8.308c0,3.319-1.161,5.359-3.653,6.42C23.094,15.687,19.935,15.765,16.34,15.765Z" stroke="none"/>
      <path d="M 16.34012031555176 13.76458358764648 L 16.34011077880859 13.76458358764648 C 19.71175003051758 13.76457405090332 22.65781021118164 13.69855403900146 24.56447982788086 12.88728332519531 C 25.4159107208252 12.52501392364502 25.98978042602539 12.0446834564209 26.37047958374023 11.37567329406738 C 26.78866004943848 10.64080333709717 27.00069999694824 9.608654022216797 27.00069999694824 8.307893753051758 C 27.00069999694824 6.534803867340088 26.59707069396973 5.084283828735352 25.80105018615723 3.996663808822632 C 25.29434013366699 3.304359674453735 24.59535026550293 2.713173389434814 23.71448707580566 2.230417966842651 C 21.36593627929688 4.640196800231934 18.23042869567871 5.995093822479248 14.90130043029785 5.995093822479248 C 11.46340179443359 5.995093822479248 8.252049446105957 4.563226222991943 5.884982109069824 2.019533157348633 C 4.805456161499023 2.526632308959961 3.952646493911743 3.165923595428467 3.34060001373291 3.928493738174438 C 2.451040029525757 5.03679370880127 2 6.510243892669678 2 8.307893753051758 C 2 9.632643699645996 2.226979970932007 10.63546371459961 2.693919897079468 11.37365341186523 C 3.125730037689209 12.05631351470947 3.815920114517212 12.56560325622559 4.803899765014648 12.93063354492188 C 7.055769920349121 13.76261329650879 10.46928977966309 13.76261329650879 14.08314037322998 13.76261329650879 L 14.29067993164063 13.76260375976563 L 14.49989986419678 13.76259326934814 C 14.80838966369629 13.76259326934814 15.11441993713379 13.76308345794678 15.41792011260986 13.76357364654541 L 15.42920970916748 13.76358413696289 L 15.43817043304443 13.76360416412354 L 15.44649982452393 13.7636137008667 C 15.74689960479736 13.76410388946533 16.04478073120117 13.76458358764648 16.34012031555176 13.76458358764648 M 16.34012031555176 15.76458358764648 C 16.04371070861816 15.76458358764648 15.7447395324707 15.76410388946533 15.44324970245361 15.7636137008667 L 15.43556976318359 15.76360416412354 L 15.4253101348877 15.76358413696289 C 15.11938953399658 15.76309394836426 14.81089973449707 15.76259326934814 14.49989986419678 15.76259326934814 L 14.29078006744385 15.76260375976563 L 14.08323955535889 15.76261329650879 C 10.28536987304688 15.76261329650879 6.6981201171875 15.76261329650879 4.110770225524902 14.80668354034424 C 1.306229948997498 13.77049350738525 -1.525879866903779e-09 11.70546340942383 -1.525879866903779e-09 8.307893753051758 C -1.525879866903779e-09 6.043523788452148 0.5991699695587158 4.148883819580078 1.78085994720459 2.6766037940979 C 2.856930017471313 1.335903644561768 4.444439888000488 0.3103736937046051 6.499289989471436 -0.3715063035488129 C 8.533539772033691 2.403663635253906 11.59554958343506 3.995093584060669 14.90130043029785 3.995093584060669 C 18.12829971313477 3.995093584060669 21.14508056640625 2.464183807373047 23.17811965942383 -0.2051063030958176 C 25.03116035461426 0.4891937077045441 26.45623970031738 1.505563735961914 27.41494941711426 2.815423727035522 C 28.4671802520752 4.253103733062744 29.00069999694824 6.101033687591553 29.00069999694824 8.307893753051758 C 29.00069999694824 11.6272439956665 27.83987998962402 13.66715335845947 25.34753036499023 14.72762393951416 C 23.09383964538574 15.68654346466064 19.93486976623535 15.76457405090332 16.34012031555176 15.76458358764648 Z" stroke="none" fill="#fff"/>
    </g>
  </g>
</svg>
