<svg xmlns="http://www.w3.org/2000/svg" width="44.012" height="36.499" viewBox="0 0 44.012 36.499">
  <path id="Differenzmenge_204" data-name="Differenzmenge 204" d="M19.6,35c-5.8,0-11.495-.461-12.436-1.007-.777-.451-2.554-3.508-4.133-7.111C1.133,22.539.026,18.621,0,16.131c-.016-1.536.366-2.552,1.135-3.02,1.074-.654,4.379-1.121,9.558-1.351A18.081,18.081,0,0,1,13.238,4.4,9.419,9.419,0,0,1,21.479,0h.079a9.649,9.649,0,0,1,8.434,4.514,19.093,19.093,0,0,1,2.722,7.466c5.236.3,8.547.711,9.081,1.13.567.444.819,2.17.675,4.615a32.388,32.388,0,0,1-1.721,8.533c-.786,2.221-2.167,5.138-4.281,6.428C33.046,34.774,23.535,35,19.6,35ZM16.968,17.268v2.476h4.548l-4.848,5.808v2.219h8.811V25.3H20.732l4.592-5.822v-2.2ZM18.755,11.6c3.446,0,7.078.073,10.5.212a16.469,16.469,0,0,0-1.781-6.278,6.574,6.574,0,0,0-6-3.638h-.014a5.583,5.583,0,0,0-4.188,1.626c-1.972,2.038-2.283,5.534-2.2,8.108C16.277,11.611,17.514,11.6,18.755,11.6Z" transform="translate(0.75 0.75)" fill="none" stroke="#ff3c00" stroke-width="1.5"/>
</svg>
